<svg xmlns="http://www.w3.org/2000/svg" viewBox="0 0 122 88" aria-hidden="true"><path d="M95.6 58.5C95.5 59.9 89.4 64.7 89.9 65.3C91.7 67.6 97.9 60.3 98.2 58.0C98.3 56.5 97.9 54.4 96.0 54.7C95.9 56.0 96.9 57.2 95.6 58.5L95.6 58.5" fill="currentColor" fill-rule="nonzero"/><path d="M99.5 37.6C99.6 36.7 99.5 35.7 99.2 34.8C100.2 34.0 101.1 33.1 101.8 32.1C102.7 32.1 103.7 32.0 104.3 31.4C105.4 30.6 105.7 29.1 105.3 28.0C105.6 27.9 105.8 27.8 106.1 27.6C106.8 26.9 106.4 25.5 105.4 25.3C104.4 25.1 103.8 24.1 103.2 23.3C102.3 22.3 101.5 21.3 100.6 20.3C99.2 18.7 97.8 16.4 95.6 15.6C94.8 15.3 93.7 15.6 93.3 14.7C93.0 13.8 92.9 12.9 92.5 12.1C91.9 10.8 90.8 10.0 89.4 9.6C89.3 8.5 88.9 7.5 88.0 6.5C86.3 4.6 83.3 4.0 81.0 5.4C81.0 5.4 80.9 5.4 80.9 5.5C79.4 6.0 78.2 7.5 78.5 9.1C76.6 10.0 75.2 12.4 74.2 12.8C66.1 16.3 57.1 20.0 48.5 22.7C43.1 24.3 33.3 25.5 28.9 27.5C28.4 27.8 26.7 28.8 26.6 29.1C27.9 32.0 27.6 35.4 27.2 38.5C26.9 39.1 25.9 38.4 25.1 38.5C23.9 38.8 21.2 39.9 19.9 40.4C17.9 41.2 16.1 42.5 14.2 43.2L15.1 42.0C14.9 42.0 14.7 42.0 14.5 42.0C14.2 42.1 11.0 45.1 10.6 45.5C7.1 49.2 4.0 55.2 5.7 60.4C7.3 64.8 16.0 72.5 20.3 74.8C31.0 80.3 57.9 83.9 70.1 83.7C77.8 83.5 86.0 81.6 93.3 78.8C103.1 75.2 113.2 70.2 115.7 59.2C118.0 49.4 107.5 40.6 99.2 37.5L99.5 37.6M76.9 13.7C78.2 13.0 79.4 12.0 80.9 11.6C81.5 11.9 82.0 12.1 82.6 12.2L82.7 12.2C84.7 14.7 85.8 18.1 88.0 20.4C90.1 22.6 94.2 23.6 96.2 26.5C96.2 26.9 92.1 29.9 91.3 30.3C90.6 30.7 85.5 32.9 85.1 32.9L78.6 32.9L78.1 32.0C79.3 29.6 80.4 27.8 80.6 24.9C81.5 25.5 81.0 26.7 82.1 27.6C83.2 28.5 85.4 28.2 84.6 29.8C87.3 30.1 90.3 28.7 90.3 25.6C90.3 22.9 88.8 21.8 86.4 21.4L87.3 20.5L83.4 21.8C84.3 18.0 77.6 15.9 75.7 17.9C75.3 18.3 75.2 19.0 74.8 19.6C73.3 21.8 73.4 20.7 74.2 23.9L72.9 23.9C73.1 20.1 68.9 18.0 66.1 20.8L65.0 19.8C68.7 17.2 73.0 15.5 77.1 13.5L76.9 13.7M72.7 47.7C72.7 50.2 72.7 52.7 72.7 55.2L67.4 54.7C67.7 48.3 65.8 42.2 65.2 35.9L72.2 35.9L72.2 47.4C72.2 47.4 72.7 47.7 72.7 47.7C72.7 43.8 72.7 39.9 72.7 36.0C74.5 35.1 76.4 35.5 78.2 36.0C78.5 38.6 78.0 41.3 78.2 44.0C78.4 46.9 79.9 51.8 79.8 54.2C79.8 54.7 79.7 54.8 79.3 55.2L72.9 55.2C72.8 54.4 73.4 53.6 73.4 52.8C73.4 51.6 72.9 48.4 72.5 47.8L72.7 47.7M78.8 35.9C80.9 36.1 82.9 35.7 84.9 35.5C86.0 35.4 86.0 36.4 86.9 34.9L94.2 31.5L90.0 54.7C89.0 56.0 82.4 54.4 80.7 54.7C79.6 48.5 78.7 42.2 78.9 35.9L78.8 35.9M65.3 26.3C67.9 27.4 69.8 27.5 72.3 25.9C72.7 26.7 70.8 28.2 71.0 28.5C71.0 28.6 72.6 29.4 72.7 30.5L71.9 31.3L72.8 32.9L64.1 32.4C65.3 30.4 65.9 28.6 65.4 26.3L65.3 26.3M64.8 35.9C65.0 42.1 67.3 48.1 67.0 54.3L61.5 53.4L61.3 48.6C60.5 48.5 60.8 49.6 60.8 50.2C60.8 51.3 60.8 52.4 60.8 53.4L55.5 52.5C55.3 46.2 54.9 39.7 52.4 33.7L59.3 35.4L59.9 42.0C60.6 42.0 60.4 40.1 60.4 39.5C60.4 38.1 59.8 36.8 59.9 35.4L64.7 35.9L64.8 35.9M48.6 51.7L43.0 51.2L42.0 46.4C42.1 48.1 42.0 49.6 42.4 51.3C41.4 51.3 38.4 51.1 38.1 50.1C38.1 44.0 37.8 37.8 35.9 32.0C37.1 32.0 38.1 31.5 38.9 32.7C39.8 34.1 41.0 41.8 41.4 44.2C41.6 45.0 41.2 46.4 42.0 46.4C41.6 41.5 40.3 36.8 39.3 32.0L46.8 32.4L47.6 42.7L48.1 43.0C47.8 39.4 47.2 36.0 47.2 32.5L51.8 33.3L55.1 52.6L49.2 51.8L48.5 43.2L48.1 43.0C48.3 45.9 48.5 48.8 48.5 51.7L48.6 51.7M37.8 27.9C43.2 26.4 48.5 25.0 53.7 22.8C54.6 24.0 51.9 23.9 51.3 24.0C51.2 24.9 52.8 24.5 53.2 24.4C54.9 23.9 56.8 21.4 59.2 21.4C61.0 24.5 59.0 24.0 58.3 25.9C57.2 28.3 59.0 30.0 59.7 32.3C59.1 32.8 45.6 30.2 43.2 30.1C41.6 30.1 40.1 30.7 38.9 30.6C37.8 30.6 37.2 29.7 35.8 29.6C34.6 29.6 33.6 30.0 32.5 30.0C33.9 27.8 36.1 28.3 37.9 27.8L37.8 27.9M34.7 32.0C37.3 33.0 37.1 47.6 37.6 50.3L33.4 49.5C34.4 43.5 32.3 37.6 30.6 32.0L34.7 32.0L34.7 32.0M30.4 35.9C31.4 40.2 31.0 44.7 32.0 49.0C31.0 49.1 29.3 48.8 28.9 47.8L28.0 31.4C29.1 30.2 30.3 35.4 30.4 35.8L30.4 35.9M75.6 81.9L74.0 81.0L82.3 79.8L75.6 81.9M111.5 60.5C104.6 74.4 83.5 77.7 69.4 79.2C53.8 80.9 30.8 75.4 17.9 66.3C14.7 63.9 9.1 59.5 9.1 54.9C9.1 48.8 22.0 41.5 27.0 39.3C27.9 40.7 27.0 41.9 27.0 43.0C27.4 49.4 28.9 54.6 35.8 56.6C43.9 59.0 58.2 60.2 66.7 60.4C68.3 60.4 68.9 59.6 69.7 59.5C74.8 59.4 81.7 60.8 86.9 60.7C88.9 60.7 91.2 59.7 93.3 59.6C94.4 58.5 95.1 54.8 96.0 54.6C96.3 49.9 97.9 45.3 98.2 40.6C98.9 40.5 99.5 40.6 100.2 41.0C102.2 41.8 106.2 44.6 108.3 45.9C107.3 44.7 107.1 43.4 105.6 42.4C108.5 43.3 111.5 46.2 112.6 49.0C111.5 48.4 111.0 47.3 110.0 46.6C109.4 46.2 108.6 46.2 108.3 46.0C112.3 51.3 115.1 53.4 111.5 60.5L111.5 60.5" fill="currentColor" fill-rule="nonzero"/><path d="M87.0 64.5L87.6 65.7L81.9 66.2L82.8 67.1C80.3 67.4 77.1 67.4 74.8 68.0C72.4 68.6 74.5 68.7 74.1 68.8C65.2 71.3 39.9 68.4 31.5 63.8C23.1 59.3 24.1 59.0 24.5 55.1C24.9 51.2 25.4 52.0 26.4 52.2C27.4 52.4 26.7 55.0 26.8 55.8C27.0 59.5 35.0 62.8 38.1 63.8C54.2 68.6 70.7 65.6 87.0 64.6L87.0 64.5" fill="currentColor" fill-rule="nonzero"/><path d="M85.9 53.9L85.4 49.7L86.0 39.9C86.9 44.5 85.7 49.3 85.9 53.9" fill="currentColor" fill-rule="nonzero"/></svg>